# xmcd
#
# Track frame offsets: 
#        225
#        15341
#        33646
#        52245
#        68465
#        82119
#        100928
#        118866
#        136329
#        151212
#
# Disc length: 2218 seconds
#
# Revision: 1
# Processed by: cddbd v1.5.2PL0 Copyright (c) Steve Scherf et al.
# Submitted via: ExactAudioCopy v0.99pb1
#
DISCID=8108a70a
DTITLE=Anthony Gomes - Long Way from Home
DYEAR=2006
DGENRE=Blues
TTITLE0=Bring It
TTITLE1=Without You
TTITLE2=Hard Line To Ride
TTITLE3=Purple Whiskey Sack
TTITLE4=Long Way Home
TTITLE5=Monday Salvation
TTITLE6=Mississippi Hurricane
TTITLE7=Morning Star
TTITLE8=Soul Power
TTITLE9=Tilt-A-Whirl
EXTD=YEAR: 2006
EXTT0=
EXTT1=
EXTT2=
EXTT3=
EXTT4=
EXTT5=
EXTT6=
EXTT7=
EXTT8=
EXTT9=
PLAYORDER=
